<?xml version="1.0" encoding="UTF-8"?>
<svg id="Layer_2" data-name="Layer 2" xmlns="http://www.w3.org/2000/svg" viewBox="0 0 79.34 165.6">
  <defs>
    <style>
      .cls-1 {
        fill: #c0272d;
      }
    </style>
  </defs>
  <g id="Logo_-_Color" data-name="Logo - Color">
    <path class="cls-1" d="M74.89,41.87c-4.08,9.56-10.48,18.88-17.27,27.75-5.18,6.85-13.82,15.81-17.06,19.59-2.32,2.59-5,4.85-5.3,4.85-.27,0-.57-.12-.57-.71,0-.71,3.63-5.42,3.9-11.94.27-6.02-3.16-12.27-6.76-19.24-4.65-8.96-9.17-19.24-9.08-30.58.09-12.03,6.31-18.08,8.55-20.55-.57.36-1.94.83-5.48,1.43-3.42.6-9.56.24-11.23.36-1.58.12-3.25.83-5.3,1.31-1.1,1.07-3.16,3.31-4.56,5.66-1.67,2.95-2.41,6.02-2.5,7.8-.09,5.9,3.51,10.15,7.98,10.15,3.07,0,5.18-3.54,5.18-7.56,0-1.88-1.4-5.66-3.42-5.66-1.67,0-3.34,1.67-3.99,1.67-.48,0-.66,0-.74-.71-.09-.83,2.98-2.83,4.47-2.83,4.17,0,5.09,5.42,5.09,7.56,0,4.38-2.5,9.2-6.4,9.32-5.66.24-10.39-3.9-10.39-11.11,0-2.83,1.4-6.85,3.25-10.15,1.49-2.35,3.07-4.14,5.18-6.37C12.77,7.18,17.99,3.07,23.91,2.59c4.47-.36,8.16.83,12.15.48,2.68-.24,4.65-.48,5.57-.71,0-.71.09-1.55.66-1.67s.74.83.74.95c.74.36.92,0,1.1.6.27.83-.83.95-1.22,1.43.09,2.11.09,3.42.09,6.49.09,3.42,0,7.44,0,8.4,0,.71-3.25,0-3.07,1.76.18,2.11,2.68.6,2.59,2.23-.09,1.88-2.5,2.47-2.41,3.78.18,1.76,1.94.71,1.94,1.88,0,1.43-2.41,2.11-1.67,3.31.36.6.83.71,1.31.71.74,0,1.4-.48,1.49.12.09.83,0,.95-.48,1.43,0,.95.18,4.85.27,9.44.18,5.54.48,11.82.36,12.75.92,1.88,4.82,7.92,4.82,16.05,0,3.42-.66,5.54-1.49,7.92,1.01-1.07,5.66-6.49,8.81-11.23,4.26-6.37,7.59-12.86,9.47-17.84,2.23-5.9,3.51-14.29,3.63-16.41-1.85,1.43-14.56,9.32-18.46,11.7-.09,1.88-.09,6.13-.27,10.04-.18,4.14.57,10.39-.66,10.63-.83.12-.66-1.19-.66-2.11,0-1.55,0-10.15.09-16.65.18-8.61.74-25.28,1.01-34.01.18-6.25.09-8.4.74-8.4.57,0,.92,0,.92,1.07,0,1.43-.09,5.9-.27,8.28.36-1.07,2.59-4.38,6.76-8.16C61.61,3.43,67.27-.12,68.94,0c1.22.12,10.39,2.47,10.39,19.12.12,6.58-.98,14.71-4.44,22.75ZM41.78,43.66c-.09-4.5-.09-8.4-.36-9.68-.92,0-2.32-.6-2.5-2.11-.09-.83.48-2.23.92-3.19-.66-.24-1.01-1.19-1.01-2.23,0-1.43,1.4-2.35,2.05-3.31-.74-.24-2.05-.36-2.14-2.83-.09-2.11,2.32-3.07,3.07-3.31-.09-1.76,0-4.14,0-6.37v-6.43c-.83.6-4.17,3.42-6.22,7.21-1.85,3.42-2.68,7.8-2.5,11.58.48,10.51,1.67,13.1,4.47,20.55,1.49,4.02,3.34,6.73,4.73,9.92-.03-1.31-.33-5.81-.51-9.8ZM46.78,13.88c-.27,10.63-.09,15.45-.09,26.56,0,6.85-.09,15.45-.09,16.29,0,.71-.09.83-.74.95-.74.12-.57-8.61-.57-17.72.09-10.75,0-15.13.18-25.85.09-5.3.66-12.51,1.49-12.51.27,0,.57.6.66,1.55.09.68-.66,3.63-.83,10.72ZM68.88,29.96c-1.76,1.07-16.88,10.51-18.46,11.46,0,.83-.09,2-.09,2.83,1.58-.95,16.79-10.87,18.64-11.94,0-.83,0-1.55-.09-2.35ZM68.79,24.75c-1.85,1.19-16.62,10.99-18.28,12.15,0,1.19.09,2.23.09,2.59,1.22-.71,5.18-3.54,8.64-5.66,3.72-2.23,7.98-4.73,9.74-5.66,0-1.19-.09-2.11-.18-3.42ZM64.98,13.4c-1.67-2.35-4.17-3.07-5.75-3.07-2.23,0-4.73,2-6.22,5.09-1.31,2.71-.66,4.73-.92,6.25-.18,1.19-.48,1.31-1.01,1.55-.18,2.11-.48,10.99-.48,11.82,1.49-1.19,16.79-11.11,18.28-12.15-.09-.86-1.49-6.19-3.9-9.5Z"/>
    <path class="cls-1" d="M71.08,86.66c-.12.51-.54,1.19-1.04,2.2-1.19,1.7-3.16,4.73-4.73,7.27-3.42,5.57-6.19,12.66-6.19,19.24,0,4.05.66,6.25,1.46,7.41.66.83,1.85,1.01,1.7,2.2,0,1.01-.54,1.34-2.11,1.34s-3.69-4.73-3.69-8.61.8-8.28,2.23-11.82c1.31-3.72,2.77-7.09,3.54-8.78-1.46.51-7.24,4.88-11.58,4.88-3.54,0-6.7-1.34-8.93-3.36-.8,3.04-1.31,8.43-1.31,8.93,0,5.39,1.85,13.16,4.47,20.25,2.77,7.27,7.62,14.5,10.27,18.37,3.42-3.87,3.96-5.24,6.19-8.78,2.11-3.87,4.62-9.95,5.27-9.95.54-.33.8.18.8,1.01,0,1.19-2.89,6.58-5.66,11.82-2.89,5.39-8.16,11.64-11.2,16.53-2.38,4.05-4.35,8.78-5.12,8.78-.92,0-2.62-3.22-5.78-8.78-2.5-4.23-5.27-8.93-7.36-14.68-2.38-5.57-4.35-12.66-4.35-19.89,0-5.57,2.11-17.39,7.5-23.61,1.31-1.7,6.46-7.27,8.04-9.44.66-1.01,8.43-9.44,9.08-9.44s1.58,2.02,3.96,3.54c1.19,1.01,3.28,1.7,5.27,1.7,1.58,0,5.12-1.34,7.12-2.02,2.38-.83,4.08-1.85,6.19-2.35-.77,2.32-1.94,3.01-4.05,6.04Z"/>
  </g>
</svg>